<?xml version="1.0" encoding="utf-8"?>
<!-- Generator: Adobe Illustrator 16.0.0, SVG Export Plug-In . SVG Version: 6.00 Build 0)  -->
<!DOCTYPE svg PUBLIC "-//W3C//DTD SVG 1.1//EN" "http://www.w3.org/Graphics/SVG/1.1/DTD/svg11.dtd">
<svg version="1.1" id="Layer_1" xmlns="http://www.w3.org/2000/svg" xmlns:xlink="http://www.w3.org/1999/xlink" x="0px" y="0px"
	 width="344.473px" height="171.324px" viewBox="0 0 344.473 171.324" enable-background="new 0 0 344.473 171.324"
	 xml:space="preserve">
<g>
	<text transform="matrix(1 0 0 1 0 24.1577)"><tspan x="0" y="0" fill="#231F20" font-family="'BentonSans-BlackSC'" font-size="30.5635">longhorn</tspan><tspan x="192.12" y="0" fill="#231F20" font-family="'BentonSans-Book'" font-size="30.5635">®</tspan></text>
</g>
<g>
	<path fill="#231F20" d="M59.233,68.367l11.398-18.525v55.478H58.092V72.354l-1.234,1.902v28.214H15.819v2.849H1V42.148l4.748,7.884
		v-9.498l30.875,51.011l21.469-35.146v-9.026l-15.77,25.554l-3.516-5.795l-5.51,9.025L10.405,38.918h12.254l16.148,26.124
		l16.055-25.935h15.105L59.233,56.683V68.367z M14.678,104.179v-1.708h-8.93V52.217l-3.609-5.983v57.945H14.678z M58.092,70.171
		V58.486L36.624,93.73L6.889,44.521v7.315l8.93,14.915v34.673h39.994V73.972L58.092,70.171z M14.678,101.425V67.037L6.889,54.022
		v47.402H14.678z M33.297,73.972l4.846-7.886l-16.15-26.028h-9.594L33.297,73.972z M42.323,70.837l16.91-27.358v11.018l8.738-14.343
		H55.432L39.473,66.086L42.323,70.837z M69.491,104.179V53.833L59.233,70.552v33.627H69.491z"/>
	<path fill="#231F20" d="M74.905,105.319l22.609-53.671h3.801l2.564-6.081h4.939l2.85-6.744h6.08l2.754,6.744h3.42l25.174,59.752
		h-17.479l-4.654-11.114h-25.176l-4.367,11.114H74.905z M96.659,104.179l3.99-9.974H88.204l6.08-14.345h-4.559l11.113-27.073h-2.564
		l-21.66,51.392H96.659z M101.03,93.065l2.85-7.125h19.758l-2.564-6.08H95.518l-5.604,13.205H101.03z M91.434,78.722h3.324
		l10.926-25.935h-3.611L91.434,78.722z M95.995,78.722h24.604l-10.639-25.935h-3.041L95.995,78.722z M126.487,93.065l-2.469-5.983
		h-19.381l-2.373,5.983H126.487z M108.344,46.707h-3.707l-2.088,4.941h3.705L108.344,46.707z M135.987,85.94l-16.148-39.233h-10.26
		l-2.186,4.941h3.324l11.115,27.073h5.984l2.945,7.219H135.987z M119.364,45.567l-2.375-5.604h-4.561l-2.375,5.604H119.364z
		 M147.481,104.179l-24.318-57.472h-2.184l16.623,40.375h-6.365l2.945,7.123h-5.984l4.084,9.974H147.481z M127.057,79.86h-4.75
		l2.471,6.08h4.75L127.057,79.86z M132.473,93.065l-2.471-5.983h-4.75l2.471,5.983H132.473z"/>
	<path fill="#231F20" d="M191.845,67.605l23.463,34.199h-7.6l2.471,3.609H166.1v-3.609h-12.254l-0.096-62.887h13.49v2.09h5.891
		v22.895l15.009-16.53h7.789l7.6-8.454h14.439L191.845,67.605z M166.1,100.762V87.176l-6.174,6.745V41.008h6.174v-0.95h-11.209
		l0.094,60.704H166.1z M166.1,80.146l5.891-6.461v-6.84l-5.891,6.461V42.148h-5.033v48.827l5.033-5.511V80.146z M167.241,42.148
		v28.214l4.75-5.227V42.148H167.241z M208.087,104.273l-1.709-2.469h-5.32l-19.474-28.214l7.409-8.17l-1.33-1.995l-14.532,15.961
		v22.418h-0.57h-5.32v2.469H208.087z M171.991,75.397l-4.75,5.224v3.611l4.75-5.226V75.397z M167.241,85.94v14.821h4.75V80.717
		L167.241,85.94z M173.131,74.067v3.703l14.628-16.148l1.994,2.943l14.725-16.053h-8.074L173.131,74.067z M173.131,65.612v6.838
		l21.753-23.938h-6.27L173.131,65.612z M190.419,67.511l-0.76-1.139l-6.555,7.313l18.523,27.076h3.99l-19.475-28.501L190.419,67.511
		z M206.949,100.762h6.27l-22.133-32.301l-3.516,3.894L206.949,100.762z M204.003,40.058l-6.555,7.314h9.5l-16.529,18.144
		l0.855,1.142l24.129-26.6H204.003z"/>
	<path fill="#231F20" d="M223.193,105.225V42.053h16.338v-3.324h33.818v3.324h3.041v63.172H223.193z M275.345,104.085V43.192h-1.996
		v10.83h-32.678v9.403h20.426v15.391h-20.426v10.64h33.438v12.159h-41.227V77.771h6.648V64.565h-6.648V52.882h6.648v-9.689h-15.199
		v60.893H275.345z M239.531,63.426v-9.403h-5.51v9.403H239.531z M272.968,100.475v-9.879h-33.438V78.816h-5.51v21.658H272.968z
		 M272.304,42.053v-2.186h-31.633v2.186H272.304z M272.304,52.882v-9.689h-31.633v9.689H272.304z M259.957,77.771V64.565h-19.285
		v13.205H259.957z"/>
	<path fill="#231F20" d="M298.806,105.414h-10.355v-4.749h-6.84V58.583h6.84V46.139h-6.553v-7.315h11.969
		c3.166,0,6.236,0.017,9.215,0.047c2.977,0.033,5.098,0.048,6.365,0.048c1.33,0,2.738,0.017,4.227,0.048
		c1.488,0.032,2.58,0.079,3.277,0.142c5.131,0.38,9.277,1.584,12.445,3.611c3.418,2.089,5.699,5.066,6.838,8.93
		c0.127,0.253,0.254,0.696,0.381,1.33c0.127,0.632,0.252,1.328,0.383,2.088c0.061,0.443,0.094,1.062,0.094,1.854
		c0,0.793,0,1.252,0,1.377c0,1.015-0.113,2.218-0.334,3.609c-0.223,1.395-0.586,2.692-1.092,3.896
		c-1.078,2.659-2.564,4.845-4.467,6.553l-0.377,0.286l-2.471-2.184l0.475-0.381c1.582-1.455,2.785-3.23,3.609-5.32
		c0.57-1.393,0.949-2.817,1.141-4.274v-0.095c0.062-0.44,0.094-0.886,0.094-1.33c0-0.442,0-0.885,0-1.33
		c0-0.061-0.014-0.363-0.047-0.901c-0.031-0.539-0.047-0.966-0.047-1.282c-0.127-0.507-0.238-1.03-0.332-1.568
		c-0.096-0.537-0.207-0.965-0.332-1.282c-0.949-3.23-2.85-5.702-5.699-7.408c-2.66-1.71-6.24-2.757-10.736-3.136
		c-0.508-0.062-1.758-0.111-3.752-0.143s-4.322-0.05-6.982-0.05s-5.447,0-8.359,0c-2.914,0-5.51,0-7.791,0v3.231
		c2.344,0,4.941,0,7.791,0s5.572,0,8.17,0c2.596,0,4.844,0.018,6.744,0.048c1.9,0.032,3.039,0.049,3.42,0.049
		c3.609,0.314,6.49,1.168,8.646,2.559c2.402,1.518,3.988,3.604,4.748,6.257l0.285,0.853c0.062,0.253,0.109,0.508,0.143,0.76
		c0.031,0.253,0.08,0.506,0.143,0.759c0,0.251,0.016,0.854,0.047,1.802c0.031,0.949-0.016,1.863-0.143,2.747v0.095
		c-0.189,1.014-0.475,1.931-0.854,2.749c-0.635,1.646-1.711,3.099-3.232,4.362c-1.518,1.265-3.008,2.212-4.463,2.843l14.914,21.617
		h-4.846l8.74,12.539h-14.061l-23.178-33.343h-3.801V105.414z M282.751,59.722v39.805h5.699V59.722H282.751z M330.062,70.457
		l0.76,0.665c1.645-1.584,2.912-3.483,3.799-5.701c0.441-1.139,0.791-2.389,1.045-3.751c0.252-1.362,0.379-2.486,0.379-3.373
		c0-0.125-0.016-0.584-0.047-1.377c-0.033-0.792-0.08-1.377-0.141-1.757c-0.131-0.696-0.256-1.33-0.383-1.9s-0.223-1.013-0.283-1.33
		c-1.139-3.547-3.262-6.301-6.365-8.265c-3.041-1.901-7.029-3.04-11.969-3.419c-1.141-0.063-3.578-0.158-7.316-0.285h-26.6v5.224
		h5.51v-4.369h13.016c1.646,0,3.311,0,4.986,0c1.68,0,3.197,0.015,4.562,0.048c1.359,0.031,2.547,0.062,3.561,0.095
		c1.014,0.031,1.678,0.047,1.996,0.047c4.559,0.38,8.295,1.488,11.209,3.324c3.041,1.838,5.098,4.497,6.174,7.979
		c0.064,0.064,0.174,0.428,0.334,1.094c0.156,0.665,0.268,1.347,0.332,2.042c0.062,0.319,0.111,0.76,0.143,1.329
		c0.031,0.57,0.047,0.89,0.047,0.95c0,0.508,0,0.984,0,1.427c0,0.444-0.062,0.886-0.189,1.328v0.097
		c-0.189,1.646-0.568,3.167-1.141,4.558c-0.379,1.015-0.871,1.967-1.473,2.851C331.406,68.876,330.759,69.695,330.062,70.457z
		 M330.345,91.545h3.516l-14.629-21.158l0.758-0.189c1.457-0.509,2.961-1.38,4.514-2.616c1.551-1.235,2.611-2.613,3.182-4.137
		c0.191-0.379,0.334-0.792,0.428-1.233c0.096-0.445,0.205-0.89,0.332-1.334v-0.096c0.127-0.759,0.189-1.6,0.189-2.52
		s-0.031-1.504-0.094-1.76c-0.062-0.252-0.096-0.475-0.096-0.664c0-0.191-0.062-0.41-0.189-0.668c0-0.188-0.064-0.473-0.189-0.854
		c-0.76-2.408-2.186-4.279-4.275-5.61c-2.027-1.269-4.75-2.062-8.17-2.378c-0.379,0-1.504-0.015-3.371-0.049
		c-1.869-0.03-4.102-0.046-6.697-0.046c-2.598,0-5.32-0.018-8.17-0.048c-2.85-0.032-5.447-0.047-7.791-0.047v12.444h5.131v-9.5
		h0.475c0.191,0,1.219,0,3.088,0c1.867,0,3.926,0,6.174,0s4.355,0.018,6.318,0.047c1.963,0.033,3.135,0.048,3.514,0.048
		c2.531,0.189,4.688,0.825,6.461,1.905c1.771,1.077,2.945,2.634,3.514,4.665c0.127,0.317,0.205,0.634,0.238,0.951
		c0.031,0.318,0.078,0.635,0.143,0.954c0.062,0.382,0.094,0.76,0.094,1.142c0,1.144-0.127,2.128-0.377,2.951v0.097
		c-0.129,0.509-0.258,0.921-0.381,1.236c-0.699,1.842-1.854,3.271-3.467,4.288c-1.615,1.015-3.533,1.586-5.75,1.712L330.345,91.545z
		 M289.591,59.722v39.805h4.941V70.741h3.229v-3.42h-3.039v-7.6H289.591z M289.591,104.273h8.266V71.882h-2.09v28.783h-6.176
		V104.273z M325.121,91.545h3.896l-16.342-23.653h1.047h0.854c2.66-0.127,4.607-0.744,5.844-1.851
		c1.232-1.11,2.072-2.234,2.516-3.373c0.062-0.191,0.127-0.365,0.191-0.522c0.061-0.157,0.125-0.334,0.189-0.523v-0.095
		c0.189-0.822,0.285-1.741,0.285-2.755c0-0.127-0.033-0.506-0.096-1.141c-0.062-0.634-0.158-1.139-0.283-1.52
		c-0.572-1.773-1.617-3.134-3.137-4.086c-1.393-0.948-3.355-1.519-5.889-1.71c-0.316,0-1.314-0.013-2.992-0.048
		c-1.68-0.029-3.531-0.047-5.559-0.047s-3.98,0-5.859,0c-1.881,0-3.189,0-3.924,0v8.361h2.943v7.694h8.645L325.121,91.545z
		 M295.863,66.277h1.994v-6.556h-1.994V66.277z M326.355,104.085h11.307l-7.887-11.399h-5.32l-17.572-25.364h-8.076v3.42h4.371
		L326.355,104.085z"/>
</g>
<g>
	<text transform="matrix(1 0 0 1 25.6104 171.3242)"><tspan x="0" y="0" fill="#231F20" font-family="'BentonSans-BlackSC'" font-size="69.4128">stu</tspan><tspan x="145.626" y="0" fill="#231F20" font-family="'BentonSans-BlackSC'" font-size="69.4128" letter-spacing="-1">di</tspan><tspan x="219.411" y="0" fill="#231F20" font-family="'BentonSans-BlackSC'" font-size="69.4128">os</tspan></text>
</g>
</svg>
